# xmcd CD database file
#
# Track frame offsets:
#	183
#	10103
#	20155
#	33328
#	44885
#	57270
#	71495
#	85213
#	97518
#	108170
#	120853
#	134148
#	143778
#	152655
#	165330
#	178228
#	186505
#	197915
#	206870
#	218048
#	229275
#	239480
#	249705
#	260750
#	274448
#
# Disc length: 3810 seconds
#
# Revision: 9
# Processed by: cddbd v1.5.2PL0 Copyright (c) Steve Scherf et al.
# Submitted via: CDex 2.21
#
DISCID=790ee019
DTITLE=Various Artist - Country Legends
DYEAR=1995
DGENRE=Country
TTITLE0=Merle Haggard - Mama Tried  1994
TTITLE1=Don Gibson - Lonesome Number One  1984
TTITLE2=Ray Price - City Lights  1993
TTITLE3=Patsy Cline - Lonely Street
TTITLE4=Johnny Cash - Folsom Prison Blues
TTITLE5=George Jones - A Good Year For The Roses
TTITLE6=Willie Nelson - A Moment Isn't Very Long
TTITLE7=Stonewall Jackson - I Love You Because  1982
TTITLE8=Faron Young - If You Ain't Lovin'  1978
TTITLE9=Porter Wagoner - The Carroll County Accident  1981
TTITLE10=Ferlin Husky - The Drunken Driver  1995
TTITLE11=The Louvin Brothers - I Don't Believe You've Met My Baby
TTITLE12=Tommy Collins - If You Can't Bite Don't Growl  1976
TTITLE13=Hank Thompson - I Recall A Gypsy Woman
TTITLE14=Merle Haggard - Sing Me Back Home  1994
TTITLE15=Don Gibson - Blue Blue Day  1984
TTITLE16=Ray Price - Crazy Arms  1993
TTITLE17=Faron Young - Alone With You  1977
TTITLE18=Patsy Cline - Stranger In My Arms
TTITLE19=Stonewall Jackson - Waterloo  1982
TTITLE20=Willie Nelson - Healing Hands Of Time
TTITLE21=Jerry Lee Lewis - I Love You So Much It Hurts
TTITLE22=George Jones - Tender Years
TTITLE23=Red Sovine and Webb Pierce - Little Rosa (Live)
TTITLE24=Johnny Cash - Thanks A Lot
EXTD=YEAR: 1995
EXTT0=
EXTT1=
EXTT2=
EXTT3=
EXTT4=
EXTT5=
EXTT6=
EXTT7=
EXTT8=
EXTT9=
EXTT10=
EXTT11=
EXTT12=
EXTT13=
EXTT14=
EXTT15=
EXTT16=
EXTT17=
EXTT18=
EXTT19=
EXTT20=
EXTT21=
EXTT22=
EXTT23=
EXTT24=
PLAYORDER=
